<svg xmlns="http://www.w3.org/2000/svg" fill="none" preserveAspectRatio="xMinYMin meet" viewBox="0 0 500 128"><path fill="#fff" d="m294.627 80.445 9.659-2.677c-.16 5.583 2.117 9.199 5.653 9.199 2.827 0 4.485-1.808 4.485-4.794 0-8.72-18.978-10.368-18.978-25.371 0-8.57 6.213-14.613 15.162-14.613 8.95 0 14.224 5.493 14.534 14.613l-9.659 2.117c0-4.474-1.648-7.85-4.795-7.85-2.667 0-4.325 1.797-4.325 4.634 0 7.99 19.088 10.048 19.088 25.52 0 8.88-6.672 14.694-15.472 14.694-9.009 0-15.212-5.844-15.352-15.472ZM340.634 76.989v18.298h-11.047V42.818h14.373c10.758 0 16.411 5.733 16.411 17.04 0 11.307-5.653 17.13-16.411 17.13h-3.326Zm2.677-25.062h-2.677V68.03h2.677c4.085 0 5.813-2.357 5.813-8.09 0-5.734-1.648-8.012-5.813-8.012ZM398.068 69.098c0 17.52-6.213 26.869-17.44 26.869s-17.36-9.35-17.36-26.87c0-17.52 6.203-26.858 17.36-26.858s17.44 9.299 17.44 26.859Zm-23.174 0c0 11.986 1.568 17.44 5.734 17.44 4.165 0 5.733-5.414 5.733-17.44 0-12.027-1.568-17.43-5.733-17.43-4.166 0-5.734 5.364-5.734 17.43ZM424.227 95.287a16.55 16.55 0 0 1-1.648-5.653l-1.098-9.659c-.55-3.456-1.998-4.715-4.785-4.715h-2.907v20.027h-11.167V42.818h15.982c10.927 0 16.031 5.494 16.031 15.232 0 7.312-4.165 11.627-8.72 12.656v.15c3.456.789 5.994 3.456 6.673 8.17l1.418 10.298a13.754 13.754 0 0 0 1.998 5.993l-11.777-.03Zm-7.071-43.36h-3.377V66.7h3.456c4.555 0 5.814-2.597 5.814-7.391 0-4.794-1.259-7.382-5.893-7.382ZM447.011 95.287v-43.12h-9.898v-9.349h31.104v9.35h-9.899v43.12h-11.307ZM469.166 80.445l9.658-2.677c-.159 5.583 2.118 9.199 5.654 9.199 2.827 0 4.485-1.808 4.485-4.794 0-8.72-18.978-10.368-18.978-25.371 0-8.57 6.212-14.613 15.162-14.613 8.95 0 14.224 5.493 14.533 14.613l-9.658 2.117c0-4.474-1.649-7.85-4.795-7.85-2.667 0-4.325 1.797-4.325 4.634 0 7.99 19.098 10.048 19.098 25.52 0 8.88-6.682 14.694-15.482 14.694-8.99 0-15.193-5.844-15.352-15.472ZM282.84 42.578c-6.522 0-8.26.66-9.189 2.258-14.383 25.45-25.311 38.955-29.836 38.955-2.537 0-3.466-3.336-.269-10.129 2.667-5.723 5.463-11.856 8.929-19.317 3.596-7.991 4.256-9.46 4.256-10.388 0-.93-.53-1.329-2.258-1.329-6.532 0-8.26.66-9.199 2.258-3.996 6.662-7.052 12.525-10.388 18.918-7.991 15.192-15.722 24.651-23.443 24.651-3.736 0-5.734-3.206-5.993-8.66 15.182-13.194 26.639-28.117 32.103-39.704 5.723-12.256 5.064-21.975-2.138-21.975-10.518 0-26.509 15.982-35.829 36.368-4.794 10.508-7.091 19.758-6.932 26.91-6.342 5.423-10.567 7.061-15.312 7.061-5.204 0-8.26-4.405-9.059-11.327 20.646-19.317 31.703-35.169 39.164-50.89 6.263-13.325 5.464-23.314-3.196-23.314-11.457-.05-31.484 21.226-41.972 44.199-5.513 11.916-7.721 22.974-6.932 31.574-7.321 7.081-11.486 8.93-14.912 8.93-2.128 0-3.067-1.21-3.067-3.207 0-2.257 1.069-4.655 5.064-12.655 3.996-8.001 4.795-9.72 4.795-10.518 0-.8-.53-1.199-2.258-1.199-6.262 0-8.26.66-9.329 2.258-8.52 12.795-14.923 25.72-21.445 25.72-3.336 0-4.665-3.995 1.728-17.72 5.993-12.655 13.984-21.854 21.975-22.654.659 3.466 3.725 6.663 7.461 6.663s5.993-2.527 5.993-5.324c0-3.466-3.736-6.932-10.528-6.932-12.915 0-30.375 11.327-39.035 29.965-5.723 12.386-3.326 24.642 5.993 24.642 4.395 0 9.719-2.797 17.45-9.19.799 4.935 4.795 8.53 10.788 8.53 5.663 0 11.596-2.666 20.396-11.506 2.278 7.561 7.621 12.166 15.702 12.166 7.342 0 13.544-2.208 21.435-9.06 1.748 5.744 5.993 9.06 12.676 9.06 6.682 0 13.454-3.726 21.845-13.854-.27 6.403 2.267 11.597 7.591 11.597 4.395 0 9.858-3.467 18.918-11.727-5.064 10.788-10.128 21.585-14.523 31.174-4.525 9.989-4.925 11.187-4.925 12.126 0 .939.929 1.728 2.528 1.728 6.262 0 8.789-1.069 10.258-4.125 9.988-20.387 22.514-46.896 32.902-69.28 3.735-7.991 4.265-9.46 4.265-10.388 0-.93-.51-1.339-2.248-1.339Zm-107.875 1.858c7.731-16.78 22.514-35.03 28.517-35.03 2.527 0 1.728 4.925-2.397 13.854-6.802 14.254-20.916 33.961-33.042 46.627a75.419 75.419 0 0 1 6.892-25.45h.03Zm37.956 5.993c6.253-13.584 16.251-25.84 20.646-25.84 2.527 0 1.598 4.665-1.997 12.526-4.665 9.988-16.521 26.24-25.581 35.03.919-6.254 3.316-13.715 6.922-21.716h.01Z"/><path fill="#fff" d="M83.29 54.165c18.649-3.736 32.104-11.727 36.768-21.975C127.38 16.608 115.923.227 88.215.227c-35.03 0-67.542 22.384-81.526 52.36-13.325 28.377-5.594 51.291 13.055 51.291 37.037 0 33.7-73.675 64.745-84.593a1.169 1.169 0 0 0-.4-2.267c-41.032-.67-43.949 80.327-66.213 80.327-11.986 0-13.185-17.05-4.125-36.238C30.002 25.657 58.379 6.47 82.22 6.47c20.917 0 29.846 9.599 23.843 22.384-4.525 9.989-18.908 19.578-32.372 21.445-1.728.27-2.258.93-2.258 1.738a2.318 2.318 0 0 0 1.199 1.858c7.99 5.863 11.057 17.19 7.062 25.71-3.596 7.592-9.06 11.727-15.193 11.457.582-1.349.901-2.796.94-4.265 0-3.725-2.798-7.052-6.264-7.052a6.192 6.192 0 0 0-6.133 6.123c0 6.393 5.734 10.788 14.524 10.788 11.456 0 20.246-4.925 24.242-13.585 4.664-9.978 1.338-20.915-8.52-28.906Z" class="b"/></svg>